<?xml version="1.0" encoding="UTF-8" standalone="no"?>
<!-- Created with Inkscape (http://www.inkscape.org/) -->

<svg
   version="1.1"
   id="svg1"
   width="512"
   height="512"
   viewBox="0 0 512 512"
   sodipodi:docname="turnip.svg"
   inkscape:version="1.3.2 (091e20ef0f, 2023-11-25)"
   inkscape:export-filename="turnip.png"
   inkscape:export-xdpi="96"
   inkscape:export-ydpi="96"
   xmlns:inkscape="http://www.inkscape.org/namespaces/inkscape"
   xmlns:sodipodi="http://sodipodi.sourceforge.net/DTD/sodipodi-0.dtd"
   xmlns="http://www.w3.org/2000/svg"
   xmlns:svg="http://www.w3.org/2000/svg">
  <defs
     id="defs1" />
  <sodipodi:namedview
     id="namedview1"
     pagecolor="#505050"
     bordercolor="#eeeeee"
     borderopacity="1"
     inkscape:showpageshadow="0"
     inkscape:pageopacity="0"
     inkscape:pagecheckerboard="0"
     inkscape:deskcolor="#505050"
     inkscape:zoom="1.7246094"
     inkscape:cx="247.5923"
     inkscape:cy="255.42016"
     inkscape:window-width="1920"
     inkscape:window-height="1131"
     inkscape:window-x="0"
     inkscape:window-y="0"
     inkscape:window-maximized="1"
     inkscape:current-layer="g1" />
  <g
     inkscape:groupmode="layer"
     inkscape:label="Image"
     id="g1">
    <g
       id="g2"
       transform="rotate(30,156.97158,496.9966)">
      <path
         style="fill:#59354a;stroke:none"
         d="m 205.99434,381.28879 c -9.86029,-2.68271 -24.86108,6.9256 -35,8.99615 -21.1651,4.32227 -42.09433,3.75656 -63,-1.62579 -4.41086,-1.13562 -22.703691,-10.58954 -22.703691,-1.3418 0,9.04972 24.013751,12.33829 30.703691,13.54706 28.01236,5.0614 70.72934,5.54691 90,-19.57562 z"
         id="path319" />
      <path
         style="fill:#59354a;stroke:none"
         d="m 236.99434,348.28879 c -7.86084,-0.69324 -15.2681,5.05578 -23,6.53937 -12.73648,2.44378 -22.82608,-0.2284 -35,-3.63349 -3.4137,-0.95483 -7.70371,-0.41919 -7.70371,4.07019 0,6.91461 13.70481,8.52567 18.70371,9.40894 17.97745,3.17657 38.16797,1.34942 47,-16.38501 z"
         id="path291" />
      <path
         style="fill:#59354a;stroke:none"
         d="m 254.99434,308.28879 c -8.56119,1.47412 -16.16959,5.96075 -25,6.82947 -5.99432,0.58972 -11.19083,-1.97257 -16.98456,-2.08719 -2.90777,-0.0575 -5.68674,1.99759 -5.35339,5.16821 0.62036,5.90042 11.04675,6.10016 15.33795,6.6636 14.10272,1.85169 28.94485,-1.81146 32,-16.57409 z"
         id="path259" />
      <path
         style="fill:#59354a;stroke:none"
         d="m -30.005661,278.28879 c -0.680237,5.38248 -2.066673,11.65191 -0.486877,17 5.128219,17.3605 28.5825191,28.45141 44.486877,32.5216 3.54216,0.9065 20.780991,4.05021 14.96759,-5.21911 -2.538711,-4.04794 -11.721771,-4.16632 -15.96759,-5.6474 -9.296814,-3.24301 -17.0376892,-8.74957 -23.999237,-15.65894 -6.614143,-6.56457 -11.163521,-18.4671 -19.000763,-22.99615 z"
         id="path243" />
      <path
         style="fill:#59354a;stroke:none"
         d="m 4.994339,201.28879 c -18.063553,26.5545 27.228027,52.71979 49,59.27856 4.558777,1.37329 25.132721,9.08231 25.132721,-0.27856 0,-3.93527 -4.121033,-4.77826 -7.133484,-5.44443 -7.820084,-1.72931 -15.545166,-3.80575 -22.999237,-6.75928 -19.277374,-7.63821 -39.0801087,-24.80609 -41,-46.79629 z"
         id="path173" />
      <path
         style="fill:#59354a;stroke:none"
         d="m 91.994339,178.28879 c -5.76474,24.22473 29.281831,26.90756 45.000001,20.93442 8.58771,-3.26346 15.22247,-9.25864 13,-18.93442 -20.96451,3.08456 -37.29627,2.78973 -58.000001,-2 z"
         id="path142" />
      <path
         style="fill:#96347c;stroke:none"
         d="m 5.8485936,199.8948 c 10.6739304,18.82062 13.9516304,33.61014 35.0000004,44.67978 8.71019,4.58081 18.46258,7.22006 28,9.43289 3.19948,0.74234 8.3907,1.00626 9.38734,4.94134 0.99997,3.94825 -3.30391,5.55042 -6.3881,5.27237 -7.95316,-0.71695 -16.61679,-3.60598 -23.99924,-6.53009 -15.00829,-5.94458 -30.60373,-15.53045 -40.2145104,-28.79629 -4.29195,-5.92423 -5.9686,-12.96298 -9.7854895,-19 -14.5205801,20.43432 -23.2472101,43.49206 -28.0000001,68 5.47208,4.6445 7.97803,11.47528 12.46759,17 7.7940101,9.59109 17.81746964,17.56857 29.53241,21.65509 4.35756,1.52005 17.33029,1.99402 17.36496,8.30865 0.0424,7.7251 -14.78156,2.51758 -18.36496,1.36573 -17.3980099,-5.59235 -30.26836,-15.40339 -41,-30.32947 h -1 c 0,37.58185 21.7003501,66.35461 50,89.19522 36.27551,29.27792 79.000004,51.1915 79.000004,103.80478 h 1 c 10.126752,-43.75257 42.108242,-73.39166 82.000002,-90 v -1 c -25.81192,3.4758 -48.11084,7.00412 -74,0.37036 -4.48007,-1.14795 -24.928216,-5.51685 -20.913576,-13.12732 2.842634,-5.3887 21.045376,3.18729 25.913576,4.38272 20.18387,4.95642 41.78522,4.47244 62,-0.0509 8.65417,-1.9365 23.99808,-11.43006 32,-7.57483 l 21,-21 c -14.03,4.4862 -28.63922,5.67886 -43,1.84491 -3.75198,-1.00168 -14.96344,-3.65976 -11.91358,-9.69678 2.60041,-5.14734 10.12137,-0.64514 13.91358,0.42365 10.45941,2.94772 21.49274,3.03091 32,0.27233 6.80875,-1.78753 12.83957,-6.15985 20,-5.84411 l 14,-29 c -11.02408,4.24658 -22.22562,6.74212 -34,4.71374 -3.55551,-0.61255 -13.94754,-3.95044 -8.52237,-9.1875 3.47436,-3.35391 11.2811,0.25385 15.52237,0.43439 14.49493,0.61704 30.32553,-3.21283 31.83023,-18.96063 3.67572,-38.46884 -21.66303,-79.73862 -50.83023,-102.99616 -11.01621,-8.78418 -29.71213,-22.41955 -45,-19.71139 -4.27088,0.75656 -8.04535,4.00128 -12,5.70755 3.41666,9.59546 -3.3111,15.99463 -12,19.54629 -12.99799,5.31302 -29.90135,4.71976 -40.814822,-5.06482 -4.1487,-3.71957 -4.07327,-19.90023 -10.084874,-18.05941 -9.44115,2.89099 -7.69623,19.63528 -3.30017,25.48843 8.930884,11.89108 29.975496,17.9277 44.199866,19.08951 v 1 c -21.44315,0 -42.663866,-0.69278 -62.000006,-11.31326 -9.02139,-4.95505 -18.18466,-13.38233 -15.29166,-24.68674 1.26338,-4.93668 4.564,-8.82346 7.29166,-13 -19.42108,1.58627 -37.62854,14.73932 -51.0000004,28 z"
         id="path119" />
      <path
         style="fill:#59354a;stroke:none"
         d="m 126.99434,221.28879 c -14.53896,-7.78665 -33.282914,-6.09787 -44.199861,-21.03937 -3.83345,-5.24664 -4.452606,-11.03354 -1.919738,-16.96063 1.445556,-3.38272 6.626403,-9.06122 1.952163,-11.97223 -16.051147,-9.99631 -40.620346,7.62402 -32.274704,25.97147 11.270417,24.77737 54.15593,24.00076 76.44214,24.00076 z"
         id="path111" />
      <path
         style="fill:#74b135;stroke:none"
         d="m 193.9111,22.116648 c -0.55093,26.68747 -8.10217,60.583222 -24.67978,81.999992 -11.72928,15.15317 -28.64484,25.28387 -40.16513,41 -2.31885,3.16339 -6.54498,7.79223 -6.24844,12 0.66244,9.40011 14.68972,21.2474 -3.90665,25 v 1 c 23.37381,6.90893 43.69214,-9.61759 55.65509,-28 23.29419,-35.79413 33.31708,-89.756736 33.34491,-131.999992 z"
         id="path5" />
      <path
         style="fill:#94d145;stroke:none"
         d="m 149.29502,18.659117 c -0.43179,20.916718 -4.56354,42.900757 -13.30866,61.999998 -4.97772,10.87128 -13.10803,20.063775 -17.69134,30.999995 -6.57979,-14.069455 -10.84702,-30.484765 -11.91049,-45.999993 -0.58849,-8.58551 4.76419,-19.117431 3.16203,-27 -1.01717,-5.004455 -6.32515,-9.926086 -9.25154,-14 H 98.295022 C 84.025731,47.272246 82.295018,82.566925 82.295018,108.65911 h -1 l -5.956787,-37.999993 3.956787,-38 -19,1 c -1.690216,21.417298 -5.88121,43.448088 -3.830246,64.999998 1.411682,14.834165 2.591141,29.698605 7.174377,43.999995 6.35991,19.84524 19.402009,36.66388 40.655871,40.99615 7.0195,1.43082 17.22037,2.48252 22.72147,-3.22378 9.42178,-9.7732 -7.29435,-17.43091 -1.99231,-26.77237 7.84799,-13.82709 21.50613,-22.30286 30.16589,-35.01465 12.25793,-17.99362 12.10495,-47.07009 12.10495,-67.985343 0,-5.92633 2.03155,-16.553528 -1.02777,-21.79013 -2.87079,-4.91388 -11.84821,-8.345215 -16.97223,-10.20987 z"
         id="path3" />
    </g>
  </g>
</svg>
